<svg xmlns="http://www.w3.org/2000/svg" xmlns:xlink="http://www.w3.org/1999/xlink" width="1482" height="363" viewBox="0 0 1482 363">
  <defs>
    <clipPath id="clip-path">
      <rect id="Rectangle_18127" data-name="Rectangle 18127" width="1482" height="363" transform="translate(0.416 0.18)" fill="#fff"/>
    </clipPath>
  </defs>
  <g id="e6d57714479874c665b36c7adee76b1d" transform="translate(-0.416 -0.18)" clip-path="url(#clip-path)">
    <path id="Path_660" data-name="Path 660" d="M2273.894,561.669c-2.318-2.028-5.91-3.071-10.2-3.071a37.5,37.5,0,0,0-10.718,1.738l-2.318.753a16.069,16.069,0,0,0-.579-4.983A19.2,19.2,0,0,0,2240.406,544c-7.532-4.287-18.134-4.983-28.273-1.912a41.16,41.16,0,0,0-5.793,2.2,36.63,36.63,0,0,0-3.593-8.053c-9.1-15.3-27.983-24.275-42.12-19.988a19.08,19.08,0,0,0-12.688,11.471c-2.781,7.184-1.564,16.048,3.418,24.391,7.358,12.456,21.494,21.031,34.472,21.089.116.753.232,1.506.405,2.2a19.8,19.8,0,0,0,1.565,4h1.333a16.177,16.177,0,0,1-1.738-4.287,18.152,18.152,0,0,1-.463-2.549.557.557,0,0,0-.191-.373.568.568,0,0,0-.388-.149h-.406c-12.63,0-26.419-8.4-33.6-20.51-4.751-8.053-5.967-16.57-3.36-23.406a18.179,18.179,0,0,1,11.993-10.776c13.615-4.113,31.923,4.635,40.787,19.467a36.914,36.914,0,0,1,3.65,8.459.685.685,0,0,0,.348.348.633.633,0,0,0,.463,0,41.144,41.144,0,0,1,6.257-2.433c9.849-2.955,20.046-2.317,27.346,1.8a18.462,18.462,0,0,1,9.154,11.414,15.879,15.879,0,0,1,.463,5.5.744.744,0,0,0,.232.521.519.519,0,0,0,.579.058l3.071-1.043c8.459-2.549,16.049-2.144,19.814,1.1a7.091,7.091,0,0,1,2.433,6.836c-.405,2.781-2.317,6.721-5.272,10.023h1.506c2.723-3.244,4.519-6.663,4.925-9.849A8.368,8.368,0,0,0,2273.894,561.669Z" transform="translate(-1837.295 -466.376)" fill="#808aff"/>
    <path id="Path_661" data-name="Path 661" d="M40.807,340.836c50.579-25.492,86.326-5.736,86.326-5.736,25.029-7.764,47.045-2.318,58.458,6.547,7.068,5.562-8.806,4.577-44.437,4.577H42.14a2.839,2.839,0,0,1-2.839-2.839,2.955,2.955,0,0,1,1.506-2.549Z" transform="translate(-16.704 -137.632)" fill="#5865f2"/>
    <path id="Path_662" data-name="Path 662" d="M815.207,189.894c12.8-6.489,21.842-1.448,21.842-1.448,6.315-1.97,11.935-.579,14.774,1.622,1.8,1.448-2.2,1.159-11.24,1.159H815.5a.7.7,0,0,1-.29-1.333Z" transform="translate(-342.906 -78.229)" fill="#5865f2"/>
    <path id="Path_663" data-name="Path 663" d="M2375.409,196.982a21.726,21.726,0,0,0-41.946-7.59,22.9,22.9,0,0,0-4.925-.521,22.65,22.65,0,0,0-17.439,8.111Z" transform="translate(-972.3 -73.614)" fill="#5865f2"/>
    <path id="Path_664" data-name="Path 664" d="M365.722,210.1a21.494,21.494,0,0,0-17.671,9.27,44.379,44.379,0,0,0-47.45,6.837h85.92a21.554,21.554,0,0,0-20.8-16.106Z" transform="translate(-126.616 -88.123)" fill="#5865f2"/>
    <path id="Path_665" data-name="Path 665" d="M2024.253,233.4a9.853,9.853,0,0,0,9.791-11.645,70.162,70.162,0,0,0-134.239-12.978,74.644,74.644,0,0,0-15.759-1.68,73.115,73.115,0,0,0-54.113,23.812,1.5,1.5,0,0,0-.348.762,1.466,1.466,0,0,0,.11.832,1.5,1.5,0,0,0,1.338.9Z" transform="translate(-775.158 11.984)" fill="#5865f2"/>
    <path id="Path_666" data-name="Path 666" d="M1642.067,596.474h-1.159c.464-13.094-1.97-21.61-7.474-25.956s-14.716-4.635-27.636-.637a.637.637,0,0,1-.463-.058.678.678,0,0,1-.29-.406,13.625,13.625,0,0,0-8.343-10.544c-5.562-2.259-12.457-.985-18.366,3.36-14.368,10.487-12.8,29.258-12.8,29.432a.641.641,0,0,1-.093.34.624.624,0,0,1-.255.24.514.514,0,0,1-.336.053.522.522,0,0,1-.3-.169c-7.474-6.663-12.688-9.27-16.917-8.517s-8.053,5.272-12.4,12.862H1533.9c4.693-8.227,8.517-13.152,13.5-14.021s9.676,1.68,16.918,7.937c-.058-4.635.753-19.872,13.325-29.084,6.257-4.577,13.557-5.909,19.467-3.476a14.541,14.541,0,0,1,8.98,10.718c12.978-3.882,22.132-3.534,28.041,1.1S1642.531,582.975,1642.067,596.474Z" transform="translate(-645.383 -233.886)" fill="#808aff"/>
    <path id="Path_667" data-name="Path 667" d="M589.811,269.212a7.3,7.3,0,0,1-3.36-5.214l-.579-3.708a.353.353,0,0,0-.7,0L584.6,264a7.479,7.479,0,0,1-3.36,5.214l-.464.29a.292.292,0,0,0-.134.117.32.32,0,0,0,.134.462l.464.29a7.71,7.71,0,0,1,3.36,5.272l.579,3.65a.353.353,0,0,0,.7,0l.579-3.65a7.532,7.532,0,0,1,3.36-5.272l.464-.29a.288.288,0,0,0,.133-.117.32.32,0,0,0-.133-.462Z" transform="translate(-141.069 -161.44)" fill="#91ffad"/>
    <path id="Path_668" data-name="Path 668" d="M1692.633,177.632a22.648,22.648,0,0,1-10.094-15.7l-1.632-11.012a1.186,1.186,0,0,0-.408-.642,1.248,1.248,0,0,0-.714-.275,1.154,1.154,0,0,0-.734.254,1.13,1.13,0,0,0-.387.664l-1.632,11.012a22.725,22.725,0,0,1-10.2,15.7l-1.428.918a1.1,1.1,0,0,0-.357.4,1.155,1.155,0,0,0-.153.516,1.048,1.048,0,0,0,.143.522,1.061,1.061,0,0,0,.367.4l1.428.918a22.953,22.953,0,0,1,10.2,15.8l1.632,11.012a1.136,1.136,0,0,0,.387.665,1.159,1.159,0,0,0,.734.253,1.254,1.254,0,0,0,.714-.274,1.185,1.185,0,0,0,.408-.643l1.632-11.012a22.876,22.876,0,0,1,10.094-15.8l1.53-.918a1.01,1.01,0,0,0,.327-.4.989.989,0,0,0,.082-.513,1.084,1.084,0,0,0-.092-.507,1.171,1.171,0,0,0-.316-.411Z" transform="translate(-683 -61.374)" fill="#3f99f2"/>
    <path id="Path_669" data-name="Path 669" d="M2174.446,400.846a10.42,10.42,0,0,1-4.635-7.242l-.811-5.04a.462.462,0,0,0-.133-.328.471.471,0,0,0-.33-.136.516.516,0,0,0-.348.132.5.5,0,0,0-.173.332l-.753,5.04a10.462,10.462,0,0,1-4.693,7.242l-.637.406a.523.523,0,0,0-.156.178.534.534,0,0,0-.075.227.421.421,0,0,0,.064.234.465.465,0,0,0,.168.171l.637.406a10.6,10.6,0,0,1,4.693,7.242l.753,5.041a.5.5,0,0,0,.173.332.51.51,0,0,0,.348.132.471.471,0,0,0,.33-.136.461.461,0,0,0,.133-.328l.811-5.041a10.556,10.556,0,0,1,4.635-7.242l.637-.406a.4.4,0,0,0,.18-.166.432.432,0,0,0,.052-.239.48.48,0,0,0-.063-.234.469.469,0,0,0-.168-.172Z" transform="translate(-909.457 -162.995)" fill="#404eed"/>
    <path id="Path_670" data-name="Path 670" d="M897.45,410.251a3.824,3.824,0,0,1-1.738-2.723l-.29-1.854a.174.174,0,0,0-.3-.123.172.172,0,0,0-.051.123l-.29,1.854a3.829,3.829,0,0,1-1.738,2.723l-.29.174c-.058,0-.058.116-.058.174a.229.229,0,0,0,.011.093.219.219,0,0,0,.047.081l.29.116a4.117,4.117,0,0,1,1.738,2.723l.29,1.912a.171.171,0,0,0,.051.123.174.174,0,0,0,.3-.123l.29-1.912a4.111,4.111,0,0,1,1.738-2.723l.29-.116a.237.237,0,0,0,.047-.081.24.24,0,0,0,.011-.093c0-.058,0-.174-.058-.174Z" transform="translate(-375.672 -170.314)" fill="#ff78b9"/>
    <path id="Path_671" data-name="Path 671" d="M941.333,540.317a1.967,1.967,0,0,1-.927-1.332L940.29,538h-.174l-.174.985a1.913,1.913,0,0,1-.869,1.332l-.116.116a.058.058,0,0,0-.041.017.056.056,0,0,0-.017.041.057.057,0,0,0,.058.058l.116.116a1.917,1.917,0,0,1,.869,1.333l.174.985h.174l.116-.985a1.972,1.972,0,0,1,.927-1.333l.116-.116Z" transform="translate(-395.106 -226.048)" fill="#ffc619"/>
    <path id="Path_672" data-name="Path 672" d="M1361.93,528.73a4.652,4.652,0,0,1-1.97-3.071l-.29-2.086c0-.116-.116-.174-.232-.174a.2.2,0,0,0-.069.013.232.232,0,0,0-.052.038.216.216,0,0,0-.041.056.257.257,0,0,0-.012.067l-.348,2.086a4.333,4.333,0,0,1-1.912,3.071l-.29.174c-.058,0-.116.058-.116.174,0,.058.058.116.116.174l.29.174a4.405,4.405,0,0,1,1.912,3.013l.348,2.086a.166.166,0,0,0,.052.123.163.163,0,0,0,.122.051c.116,0,.232-.058.232-.174l.29-2.086a4.61,4.61,0,0,1,1.97-3.013l.29-.174a.212.212,0,0,0,.046-.081.248.248,0,0,0,.012-.093c0-.116,0-.174-.058-.174Z" transform="translate(-570.804 -219.907)" fill="#91ffad"/>
    <path id="Path_673" data-name="Path 673" d="M361.067,540.277a34.409,34.409,0,0,1-14.748-23.351l-2.458-16.387c-.409-.819-.819-1.638-1.638-1.638a1.637,1.637,0,0,0-1.639,1.638l-2.458,16.387a34.834,34.834,0,0,1-15.158,23.351l-2.458,1.229c-.41.409-.41.819-.41,1.638,0,.41,0,1.229.41,1.229l2.458,1.639a34,34,0,0,1,15.158,23.351l2.458,16.387c0,.819.819,1.229,1.639,1.229s1.229-.41,1.638-1.229l2.458-16.387a33.591,33.591,0,0,1,14.748-23.351l2.458-1.639c.41,0,.819-.819.819-1.229a2.023,2.023,0,0,0-.217-.913,2.062,2.062,0,0,0-.6-.725Z" transform="translate(-253.571 -212.1)" fill="#ff78b9"/>
  </g>
</svg>
