<svg xmlns="http://www.w3.org/2000/svg" width="639.313" height="863" viewBox="0 0 639.313 863">
  <g id="c40c84ca18d84633a9d86b4046a91437-2" transform="translate(-130.631)">
    <path id="Path_250" data-name="Path 250" d="M13.7,223.5H577.1V550.268H13.7Z" transform="translate(184.171 312.719)" fill="#5865f2"/>
    <path id="Path_251" data-name="Path 251" d="M577.1,324.488l-563.4-84.4V223.5H577.1Z" transform="translate(184.171 312.719)" fill="#4b59f2"/>
    <path id="Path_252" data-name="Path 252" d="M446.1,223.5H453.8V550.268H446.1Z" transform="translate(-248.23 312.719)" fill="#3543de"/>
    <path id="Path_253" data-name="Path 253" d="M406.8,223.5H414.5V550.268H406.8Z" transform="translate(-114.434 312.719)" fill="#3543de"/>
    <path id="Path_254" data-name="Path 254" d="M367.5,223.5H375.2V550.268H367.5Z" transform="translate(19.361 312.719)" fill="#3543de"/>
    <path id="Path_255" data-name="Path 255" d="M328.2,223.5H335.9V550.268H328.2Z" transform="translate(153.156 312.719)" fill="#3543de"/>
    <path id="Path_256" data-name="Path 256" d="M288.8,223.5H296.5V550.268H288.8Z" transform="translate(287.292 312.719)" fill="#3543de"/>
    <path id="Path_257" data-name="Path 257" d="M249.5,223.5H257.2V550.268H249.5Z" transform="translate(421.088 312.719)" fill="#3543de"/>
    <path id="Path_294" data-name="Path 294" d="M4.3,223.5H635.614" transform="translate(130.33 312.719)" fill="none" stroke="#2835bd" stroke-linecap="round" stroke-linejoin="round" stroke-width="8"/>
    <path id="Path_302" data-name="Path 302" d="M293.38,45.857a19.723,19.723,0,0,1,38.587-8.131,19.723,19.723,0,0,1-38.587,8.131Z" transform="translate(241.383 30.464)" fill="#2a39d4"/>
    <path id="Path_303" data-name="Path 303" d="M552.906,106.5c-17.553.962-38.712,8.175-65.161,37.51-14.908-14.908-22.121-10.82-42.078,6.252s-62.756,49.532-73.336,60.352-18.514,34.143,10.339,51.7,80.068-14.667,107-33.422,63.237-40.636,63.237-40.636Z" transform="translate(-146.803 148.396)" fill="#2331b5"/>
    <path id="Path_304" data-name="Path 304" d="M415.684,121.9a211.758,211.758,0,0,0-17.553,36.308c-5.53,17.312,1.443,27.411,15.629,39.193s19.957,9.137,27.411,3.126a2.164,2.164,0,0,1,2.645,3.366,22.349,22.349,0,0,1-13.705,5.53c-6.011,0-12.022-2.885-19.236-8.9-12.263-10.339-23.8-22.121-16.591-43.761a153.292,153.292,0,0,1,9.858-22.6,26.686,26.686,0,0,1,6.011-7.694Z" transform="translate(-108.886 170.025)" fill="#3442d9"/>
    <path id="Path_305" data-name="Path 305" d="M432.9,151.8c-12.984,12.5-44,34.624-44,34.624" transform="translate(-89.795 212.019)" fill="none" stroke="#000" stroke-linecap="round" stroke-width="2"/>
    <path id="Path_306" data-name="Path 306" d="M362.866,226.726c-62.2-17.718-99.67-77.532-83.7-133.6S358.507,5.973,420.7,23.69s99.67,77.531,83.7,133.6S425.063,244.442,362.866,226.726Z" transform="translate(107.719 25.102)" fill="#ff78b9"/>
    <path id="Path_307" data-name="Path 307" d="M333.017,80.478c0,23.083-11.06,43.521-24.766,45.685S291.179,116.3,290.7,93.943c0-5.771-.241-11.541-.721-17.552-1.443-20.678,6.011-31.98,18.274-33.9S333.017,57.4,333.017,80.478Z" transform="translate(248.371 58.282)" fill="#fff"/>
    <path id="Path_308" data-name="Path 308" d="M398.211,91.038a19.714,19.714,0,0,0,1.443-21.881c-19.236-32.7-36.788-33.9-49.291-33.182s-22.121,12.5-11.782,42.319c-14.667,15.87-8.656,30.537,12.263,32.46S383.063,111,398.211,91.038Z" transform="translate(81.227 49.165)" fill="#d11583"/>
    <path id="Path_309" data-name="Path 309" d="M367.522,344.793c-2.885-78.867,22.361-88.965,24.766-112.529s4.809-55.3,30.777-89.446c0,0-3.126-31.979-4.809-53.379a5.77,5.77,0,0,1,6.492-6.011,264.738,264.738,0,0,0,50.975,3.126c29.334-.962,69.008-3.847,111.326,37.269l-13.705,19.236.962,1.683a9.137,9.137,0,0,1-4.809,13.225l-2.645.962s38.712,23.323,27.17,75.981.721,103.633-18.755,119.262a29.335,29.335,0,0,1-28.373,4.568l-89.206,47.609c-32.46,35.827-78.626,75.981-78.626,75.981l35.586,84.878-37.51,94.5c-31.979-78.386-74.057-155.329-81.511-190.915S312.219,414.282,367.522,344.793Z" transform="translate(-25.619 115.926)" fill="#2331b5"/>
    <path id="Path_310" data-name="Path 310" d="M409.845,416.86C392.052,361.8,372.1,312.025,366.084,297.6a6.726,6.726,0,0,1,1.683-7.454c51.936-49.772,64.2-66.844,64.2-66.844" transform="translate(-32.837 312.438)" fill="none" stroke="#3442d9" stroke-width="2"/>
    <path id="Path_311" data-name="Path 311" d="M308.914,218.853l32.22-21.881s-19.476-26.69-30.3-42.8l-2.645-4.088a1.919,1.919,0,0,0-1.113-1.056,1.9,1.9,0,0,0-.777-.113,1.922,1.922,0,0,0-.755.207,2.165,2.165,0,0,0-1.2,2.4C311.318,194.087,308.914,218.853,308.914,218.853Z" transform="translate(205.389 207.963)"/>
    <path id="Path_312" data-name="Path 312" d="M299.4,87.6c17.072,5.771,39.674,5.53,66.6,4.809s54.1-1.443,98.583,29.815l-7.213,10.339c-41.116-29.094-63.237-28.372-91.129-27.651s-47.608.962-65.882-3.847C300.12,96.5,299.639,91.928,299.4,87.6Z" transform="translate(93.719 121.852)" fill="#3442d9"/>
    <path id="Path_313" data-name="Path 313" d="M346.674,339.093a2.16,2.16,0,0,1-2.164-1.924c-.481-38.712,14.186-78.145,20.438-93.293a156.03,156.03,0,0,0,11.782-49.051c1.924-21.881,6.492-38.952,9.377-45.685L377.932,84.7h4.328l8.175,65.161v.481c-2.645,5.771-7.454,22.842-9.377,44.964a165.225,165.225,0,0,1-11.782,50.253c-6.492,14.908-20.919,53.62-20.438,91.37a2.167,2.167,0,0,1-2.164,2.164Z" transform="translate(59.428 117.779)"/>
    <path id="Path_314" data-name="Path 314" d="M316.789,555.2a9.859,9.859,0,0,1,7.694-4.328c-1.443-8.656.241-15.869,11.541-18.514a82.006,82.006,0,0,1,39.433,1.2c22.121-56.745,65.882-206.3,96.419-315.466l99.064-20.2c.962,27.17-16.831,87.042-29.815,138.5s-41.6,159.176-49.532,198.128c-4.809,23.564-11.782,51.7-11.782,51.7h-91.85c-26.93,0-61.554-10.58-68.287-15.87S314.385,559.532,316.789,555.2Z" transform="translate(-49.664 276.765)" fill="#2331b5"/>
    <path id="Path_315" data-name="Path 315" d="M319.7,530.117c28.373-89.446,69.729-209.67,94.976-331.817" transform="translate(94.819 277.326)" fill="none" stroke="#3442d9" stroke-width="2"/>
    <path id="Path_316" data-name="Path 316" d="M263.556,300.665c-.481-6.973,9.137-33.182,20.678-52.177s17.312-32.46,28.132-26.209,36.067,22.6,36.067,22.6-19.476-26.69-30.3-42.8c-23.323-35.105-15.148-83.435,25.006-87.282,32.941,18.274,37.99,33.9,69.248,88.965S462.165,317.5,428.5,341.782s-66.123,7.454-126.715-19.236C275.578,311.245,263.8,307.879,263.556,300.665Z" transform="translate(198.09 160.053)" fill="#2331b5"/>
    <path id="Path_317" data-name="Path 317" d="M314.766,250.261c6.732-3.126,12.744-13.225,19.957-33.9,12.022-34.865,15.148-45.444,7.694-52.658l4.569,2.885a7.461,7.461,0,0,1,3.607,6.252c.24,9.137-4.328,22.6-12.022,44.964-4.809,13.946-9.137,23.323-13.705,29.094A12.981,12.981,0,0,1,309,251.223,11.285,11.285,0,0,0,314.766,250.261Z" transform="translate(184.63 228.732)" fill="#3442d9"/>
    <path id="Path_318" data-name="Path 318" d="M291.8,186.613c11.3-19,17.312-32.46,28.132-26.209s66.123,41.116,66.123,41.116" transform="translate(190.525 221.928)" fill="none" stroke="#000" stroke-linecap="round" stroke-width="2"/>
    <path id="Path_319" data-name="Path 319" d="M348.9,207.342a824.457,824.457,0,0,0,8.416-151A10.338,10.338,0,0,1,370.3,46L430.17,62.833" transform="translate(9.114 62.943)" fill="none" stroke="#66bcff" stroke-linecap="round" stroke-width="4"/>
    <path id="Path_320" data-name="Path 320" d="M441.136,128.251c-5.771,11.061-16.11,30.777-18.274,37.269-.721,10.1-.24,27.411-.24,32.7a2.4,2.4,0,0,1-1.683,2.164c-16.35,2.4-23.323,2.645-30.056,1.923s-16.11-3.847-22.6-5.771a2.886,2.886,0,0,1-1.683-3.607c6.011-19.717,10.1-33.9,10.1-33.9,1.2-24.526,1.443-44,1.443-50.494a2.405,2.405,0,0,1,2.4-2.4c22.362-1.443,30.056-1.443,38.231-.962s10.82,5.29,22.121,18.755a3.613,3.613,0,0,1,.241,4.328Z" transform="translate(-44.651 146.121)" fill="#fff"/>
    <path id="Path_321" data-name="Path 321" d="M376.454,194.614s-2.645.962-.721,1.924a2.886,2.886,0,0,1-1.683-3.607c6.011-19.717,10.1-33.9,10.1-33.9,1.2-24.526,1.443-44,1.443-50.494a2.405,2.405,0,0,1,2.4-2.4c22.361-1.443,30.056-1.443,38.231-.962a15.708,15.708,0,0,1,5.049,1.2l-21.159,44.723,1.443,41.116Z" transform="translate(-52.103 146.121)" fill="#ffe75c"/>
    <path id="Path_322" data-name="Path 322" d="M428.539,189.218c-4.088,14.667-7.694,25.007-16.831,26.93s-19.957-7.454-33.9-21.4-9.137-25.728-3.126-36.788,6.973-25.006,14.427-30.777A164.281,164.281,0,0,1,418.68,109.87c8.416-3.607,13.465-3.607,26.209,10.82s20.2,22.842,18.033,28.613a95.733,95.733,0,0,1-5.771,12.022c5.771,5.771,5.771,10.58,3.366,16.591s-3.366,11.541-15.629,11.541Z" transform="translate(-71.728 150.316)" fill="#ff78b9"/>
    <path id="Path_323" data-name="Path 323" d="M405.162,147.539,371.5,115.8" transform="translate(-20.218 161.458)" fill="none" stroke="#000" stroke-linecap="round" stroke-width="2"/>
    <path id="Path_324" data-name="Path 324" d="M406.77,134.2a199.8,199.8,0,0,0,23.564,12.744c.241,4.568.241,8.175.241,10.1a2.4,2.4,0,0,1-.5,1.347,2.434,2.434,0,0,1-1.18.818c-16.35,2.4-23.323,2.645-30.056,1.924s-16.11-3.847-22.6-5.771a2.886,2.886,0,0,1-1.683-3.607l1.443-4.809A139.18,139.18,0,0,0,406.77,134.2Z" transform="translate(-52.603 187.3)" fill="#fff"/>
    <path id="Path_325" data-name="Path 325" d="M383.791,146.944A139.182,139.182,0,0,0,414.568,134.2l4.809,3.126.481,13.225a1.18,1.18,0,0,1-.281.44,1.2,1.2,0,0,1-.44.281l-34.384,2.164s-2.645.962-.721,1.924a3.123,3.123,0,0,1-1.683-1.443c0-.24-.24-.721-.24-.962a2.153,2.153,0,0,1,.24-1.2l1.443-4.568Z" transform="translate(-60.402 187.3)" fill="#ffe75c"/>
    <path id="Path_326" data-name="Path 326" d="M363.4,195.2a80.775,80.775,0,0,1-16.35-30.3c-2.4-7.213-5.049-17.553-6.011-21.4s-5.53-6.011-11.061-4.809-7.935,2.164-6.973,12.022,3.126,33.182,3.126,33.182Z" transform="translate(138.64 193.145)" fill="#ff78b9"/>
    <path id="Path_327" data-name="Path 327" d="M328.619,192.082c3.607-9.858,5.29-14.908,8.416-19s6.011-4.809,19.957-5.53c5.53-.24,16.11,0,23.083.24-13.706-3.607-28.373-6.733-31.5-7.694s-9.377-1.924-7.213-7.935,4.087-7.454,7.454-7.454a125.446,125.446,0,0,1,25.728,2.164,224.986,224.986,0,0,1,36.307,10.339c6.973,2.885,15.87,15.87,28.373,29.094-5.53,19.476-18.755,49.292-32.22,63.478-17.793-6.973-28.372-22.362-32.7-28.132-22.361-3.847-30.056-1.443-42.559.24-7.694.962-8.416-4.568-8.9-7.213S325.493,201.219,328.619,192.082Z" transform="translate(62.816 202.033)" fill="#ff78b9"/>
    <path id="Path_328" data-name="Path 328" d="M309.532,68.415c.721,10.1-2.645,18.514-7.454,19s-7.213-3.366-7.454-12.744a63.3,63.3,0,0,0-1.443-11.782c-1.683-8.416,1.924-11.541,6.011-11.782S308.811,58.557,309.532,68.415Z" transform="translate(264.642 70.585)"/>
    <path id="Path_329" data-name="Path 329" d="M326.8,20.711a20.917,20.917,0,0,0-24.045,13.705c-3.607,11.3-6.732,28.373,12.5,31.5,8.175,1.2,16.591-2.4,29.575-12.5,9.378-7.454,19.476-10.1,41.357,1.2C397.974,46.439,392.2,25.52,360.224,36.1c13.946-18.033,9.858-30.537-.24-34.143S334.736.273,326.8,20.711Z" transform="translate(164.9 -0.491)" fill="#2a39d4"/>
    <path id="Path_330" data-name="Path 330" d="M322.981,54.479c6.973-8.656,12.744-20.2,17.553-30.056s9.618-20.2,14.908-23.323h.721a13.725,13.725,0,0,1,5.049,3.126l-1.683-.481c-4.568.481-9.618,11.061-15.148,22.362s-10.82,21.881-18.033,31.018a49.36,49.36,0,0,1-8.175,7.694,21.165,21.165,0,0,1-6.732.24H311.2A53.651,53.651,0,0,0,322.981,54.479Z" transform="translate(168.721 0.365)"/>
    <path id="Path_331" data-name="Path 331" d="M327.3,47.128a14.654,14.654,0,0,0,3.847,3.847A63.476,63.476,0,0,1,351.1,9.137a14.186,14.186,0,0,0-5.53-.24A67.079,67.079,0,0,0,327.3,47.128Z" transform="translate(140.117 11.083)"/>
    <path id="Path_332" data-name="Path 332" d="M525.171,352.536c-.24,1.924-.721,3.607-.962,5.29-4.809,23.564-11.782,51.7-11.782,51.7h-91.85c-26.93,0-61.554-10.58-68.287-15.869S347,382.832,349.4,378.5a9.859,9.859,0,0,1,7.694-4.328c-1.443-8.656.24-15.87,11.541-18.514a81.978,81.978,0,0,1,39.433,1.2c3.366-8.9,7.454-19.957,11.782-32.7C460.25,323.442,501.366,320.076,525.171,352.536Z" transform="translate(-82.28 453.465)" fill="#45aaf7"/>
    <path id="Path_333" data-name="Path 333" d="M525.171,352.536c-.24,1.924-.721,3.607-.962,5.29-4.809,23.564-11.782,51.7-11.782,51.7h-91.85c-26.93,0-61.554-10.58-68.287-15.869S347,382.832,349.4,378.5a9.859,9.859,0,0,1,7.694-4.328c-1.443-8.656.24-15.87,11.541-18.514a81.978,81.978,0,0,1,39.433,1.2c3.366-8.9,7.454-19.957,11.782-32.7C460.25,323.442,501.366,320.076,525.171,352.536Z" transform="translate(-82.28 453.465)" fill="#45aaf7"/>
    <path id="Path_334" data-name="Path 334" d="M373.3,366.715l3.126.721h.481l26.209,5.29a3.63,3.63,0,0,0,.721-1.924,78.89,78.89,0,0,0,3.126-20.919c.241-14.667,7.935-16.11,21.159-15.869l-.721-1.683A24.285,24.285,0,0,0,404.317,316.7H382.436a8.9,8.9,0,0,0-8.656,10.339c2.645,11.3,3.366,25.247.721,35.586A20.3,20.3,0,0,1,373.3,366.715Z" transform="translate(-47.505 443.614)" fill="#8cd9ff"/>
    <path id="Path_335" data-name="Path 335" d="M380.7,344.366a25.253,25.253,0,0,1,19.957,1.683,27.992,27.992,0,0,1-.962,4.328,20.93,20.93,0,0,0-17.553-2.164c-13.465,4.569-23.323,22.121-28.373,34.144H349.2C354.489,369.853,365.069,349.656,380.7,344.366Z" transform="translate(37.908 480.63)" fill="#5865f2"/>
    <path id="Path_336" data-name="Path 336" d="M369.25,357.8l2.164,2.164c6.733,5.29,41.357,15.87,68.287,15.87h54.822v-.962c-63-.962-105.8-27.17-120.464-27.17C369.25,347.7,366.365,354.913,369.25,357.8Z" transform="translate(-101.404 487.154)"/>
    <path id="Path_337" data-name="Path 337" d="M409.045,138.1a24.279,24.279,0,0,1-13.946,9.137" transform="translate(-80.847 192.777)" fill="none" stroke="#000" stroke-linecap="round" stroke-width="2"/>
    <path id="Path_338" data-name="Path 338" d="M352.733,148.237a9.619,9.619,0,0,0,9.618-8.656l1.924-21.881h-4.328L347.2,138.619a6.492,6.492,0,0,0,5.53,9.618Z" transform="translate(81.021 164.126)" fill="#ffe75c"/>
    <path id="Path_339" data-name="Path 339" d="M330.063,114.8H306.5" transform="translate(211.171 160.053)" fill="none" stroke="#000" stroke-linecap="round" stroke-width="2"/>
    <path id="Path_340" data-name="Path 340" d="M407.048,267.444c2.885-10.339,7.213-25.007,7.213-25.007A480.743,480.743,0,0,1,359.2,200.6s19.957,44.242,28.854,85.359Z" transform="translate(0.257 280.557)"/>
    <path id="Path_341" data-name="Path 341" d="M407.922,249.862,384.6,248.9" transform="translate(-54.478 348.393)" fill="none" stroke="#000" stroke-linecap="round" stroke-width="2"/>
    <path id="Path_342" data-name="Path 342" d="M380.627,340.028l3.126.721h.481a252.261,252.261,0,0,1,30.777,9.378h.721a2.167,2.167,0,0,0,1.923-1.443,1.925,1.925,0,0,0-1.2-2.645l-5.29-2.164a242.658,242.658,0,0,0-29.335-8.175A20.147,20.147,0,0,1,380.627,340.028Z" transform="translate(-54.833 470.301)"/>
    <path id="Path_343" data-name="Path 343" d="M340.894,169.2l.721-1.924.962-2.4c20.919-2.164,42.8-3.607,64.2-1.443a2.2,2.2,0,0,1,.81.257,2.178,2.178,0,0,1,1.039,1.3,2.169,2.169,0,0,1-.731,2.306,2.146,2.146,0,0,1-.752.392,2.187,2.187,0,0,1-.846.072C384.655,165.349,362.293,167.032,340.894,169.2Z" transform="translate(49.82 226.842)"/>
    <path id="Path_344" data-name="Path 344" d="M300.929,53.8l13.946,6.733-19.476,8.9Z" transform="translate(253.048 74.381)" fill="#fff"/>
    <path id="Path_345" data-name="Path 345" d="M354.145,362.266c-1.443-1.924.24-3.126,4.809-3.126,14.667,0,57.467,20.2,120.463,21.159h37.029l2.645-10.58c-28.853,0-60.352-.481-89.686-9.858s-48.811-17.312-68.287-14.908a9.859,9.859,0,0,0-7.694,4.328,10.818,10.818,0,0,0,.721,12.984Z" transform="translate(-86.299 482.687)" fill="#fff"/>
    <path id="Path_346" data-name="Path 346" d="M393.286,322.147H390.4c-6.732,0-11.3.24-12.744,1.924s-.721,2.4-.24,4.809a25.361,25.361,0,0,0-.962-4.088,5.769,5.769,0,0,1,4.809-6.492h12.022c11.061,0,23.564,0,30.056,14.186a11.545,11.545,0,0,0-4.328.721C413.483,321.907,403.625,322.147,393.286,322.147Z" transform="translate(-50.18 445.863)" fill="#3442d9"/>
    <path id="Path_347" data-name="Path 347" d="M345.625,48.3c3.126,5.049,8.656,10.82,20.919,13.225C349.712,59.6,342.5,68.979,342.5,68.979" transform="translate(88.129 66.656)" fill="none" stroke="#000" stroke-linecap="round" stroke-linejoin="round" stroke-width="2"/>
    <path id="Path_380" data-name="Path 380" d="M272.516,183a27.891,27.891,0,0,1,16.108-6.011c12.5,0,19.476,12.263,21.881,24.045a8.418,8.418,0,0,0,8.175,6.732h1.683a8.173,8.173,0,0,0,6.492-9.858c-4.568-22.842-19.476-37.51-38.231-37.51A13.706,13.706,0,0,0,275.4,171.22Z" transform="translate(295.886 224.097)" fill="#fff"/>
    <path id="Path_381" data-name="Path 381" d="M279.376,215.147A16.352,16.352,0,0,0,292.118,235.1l6.011.481c13.705,0,27.894-8.175,38.955-22.362a8.417,8.417,0,0,0-1.686-11.782,8.173,8.173,0,0,0-11.779,1.683c-7.694,9.858-17.074,15.87-25.49,15.87s-13.465-4.809-17.072-11.061C280.576,210.579,279.857,212.983,279.376,215.147Z" transform="translate(268.827 279.234)" fill="#2331b5"/>
    <path id="Path_382" data-name="Path 382" d="M295,177.5a8.176,8.176,0,0,1,7.694,5.53L312.8,210.2a11.783,11.783,0,0,1-5.049,13.946,8.174,8.174,0,0,1-12.022-4.328l-6.494-17.553C290.914,194.331,292.84,186.156,295,177.5Z" transform="translate(269.31 248.113)" fill="#5865f2"/>
    <path id="Path_383" data-name="Path 383" d="M305.658,213.062a11.783,11.783,0,0,0,5.049-13.946l-2.885-7.454a9.62,9.62,0,0,0-13.705-5.049,9.856,9.856,0,0,0-4.328,11.782l3.847,10.339a8.175,8.175,0,0,0,12.022,4.328Z" transform="translate(271.399 259.199)" fill="#ffe75c"/>
    <path id="Path_393" data-name="Path 393" d="M301.958,356.9a11.539,11.539,0,0,0,11.058-9.377v-1.443a7.934,7.934,0,0,0-8.175-9.377h-1.2a11.546,11.546,0,0,0-11.061,9.137v1.683a7.937,7.937,0,0,0,8.178,9.377Z" transform="translate(261.875 471.7)" fill="#66bcff"/>
    <g id="Group_53706" data-name="Group 53706" transform="translate(21.903)">
      <path id="Path_348" data-name="Path 348" d="M154.4,455.694H314.3V422.031a33.438,33.438,0,0,0-9.377-23.323L289.05,383.319a20.673,20.673,0,0,1-6.492-14.908V329.94a34.145,34.145,0,0,0-26.449-33.182c-25.728-6.492-52.417-7.694-74.3-3.366A34.38,34.38,0,0,0,154.4,327.055Z" transform="translate(367.652 407.293)" fill="#45aaf7"/>
      <path id="Path_349" data-name="Path 349" d="M198.616,389.34h-.962a2.164,2.164,0,0,1-1.924-.962c-7.213-13.946-7.213-35.586-7.213-58.669s-2.164-31.739-17.553-37.51l8.175,1.683A14.666,14.666,0,0,1,189,301.577c3.366,6.733,3.847,15.629,3.847,28.132,0,22.6,0,43.761,6.732,56.745a1.922,1.922,0,0,1,.226,1.678,1.931,1.931,0,0,1-1.188,1.207Z" transform="translate(441.451 409.207)" fill="#bae8ff"/>
      <path id="Path_350" data-name="Path 350" d="M177.3,327a34.387,34.387,0,0,1,27.651-33.663,170.208,170.208,0,0,1,38.955-2.164c30.777,2.164,26.206,21.64,26.206,50.013v24.285a45.444,45.444,0,0,0,6.254,23.083c4.568,7.454,5.768,16.591,5.768,34.384v32.7H177.3Z" transform="translate(344.749 407.346)" fill="#3f99f2"/>
      <path id="Path_351" data-name="Path 351" d="M203.941,413.665c1.443-41.838,20.438-78.386,39.674-113.25a4.57,4.57,0,0,0-3.847-7.213h-4.809a6.5,6.5,0,0,0-5.049,2.885c-19.717,36.307-40.395,74.058-41.838,117.579-.721,21.881,15.869,38.712,37.991,38.712h15.869C219.811,452.377,203.22,435.545,203.941,413.665Z" transform="translate(356.582 410.609)" fill="#3543de"/>
      <path id="Path_352" data-name="Path 352" d="M222.76,413.665c1.443-41.838,20.678-78.386,39.674-113.25a4.57,4.57,0,0,0-3.849-7.213h-4.809a5.78,5.78,0,0,0-4.809,2.885c-19.957,36.307-40.395,74.058-42.078,117.579a37.029,37.029,0,0,0,37.993,38.712H260.75a37.023,37.023,0,0,1-37.991-38.712Z" transform="translate(292.561 410.609)" fill="#3543de"/>
      <path id="Path_394" data-name="Path 394" d="M300.756,356.9h1.2a11.539,11.539,0,0,0,11.058-9.377v-1.443a7.934,7.934,0,0,0-8.175-9.377h-1.2a11.546,11.546,0,0,0-11.061,9.137v1.683a7.937,7.937,0,0,0,8.178,9.377Z" transform="translate(261.874 471.701)" fill="#5865f2"/>
    </g>
  </g>
</svg>
