<svg xmlns="http://www.w3.org/2000/svg" width="29.677" height="59.036" viewBox="0 0 29.677 59.036">
  <path id="Path_668" data-name="Path 668" d="M1692.633,177.632a22.648,22.648,0,0,1-10.094-15.7l-1.632-11.012a1.186,1.186,0,0,0-.408-.642,1.248,1.248,0,0,0-.714-.275,1.154,1.154,0,0,0-.734.254,1.13,1.13,0,0,0-.387.664l-1.632,11.012a22.725,22.725,0,0,1-10.2,15.7l-1.428.918a1.1,1.1,0,0,0-.357.4,1.155,1.155,0,0,0-.153.516,1.048,1.048,0,0,0,.143.522,1.061,1.061,0,0,0,.367.4l1.428.918a22.953,22.953,0,0,1,10.2,15.8l1.632,11.012a1.136,1.136,0,0,0,.387.665,1.159,1.159,0,0,0,.734.253,1.254,1.254,0,0,0,.714-.274,1.185,1.185,0,0,0,.408-.643l1.632-11.012a22.876,22.876,0,0,1,10.094-15.8l1.53-.918a1.01,1.01,0,0,0,.327-.4.989.989,0,0,0,.082-.513,1.084,1.084,0,0,0-.092-.507,1.171,1.171,0,0,0-.316-.411Z" transform="translate(-1664.9 -150)" fill="#3f99f2"/>
</svg>
