<svg xmlns="http://www.w3.org/2000/svg" width="130.346" height="64.221" viewBox="0 0 130.346 64.221">
  <path id="Path_660" data-name="Path 660" d="M2273.894,561.669c-2.318-2.028-5.91-3.071-10.2-3.071a37.5,37.5,0,0,0-10.718,1.738l-2.318.753a16.069,16.069,0,0,0-.579-4.983A19.2,19.2,0,0,0,2240.406,544c-7.532-4.287-18.134-4.983-28.273-1.912a41.16,41.16,0,0,0-5.793,2.2,36.63,36.63,0,0,0-3.593-8.053c-9.1-15.3-27.983-24.275-42.12-19.988a19.08,19.08,0,0,0-12.688,11.471c-2.781,7.184-1.564,16.048,3.418,24.391,7.358,12.456,21.494,21.031,34.472,21.089.116.753.232,1.506.405,2.2a19.8,19.8,0,0,0,1.565,4h1.333a16.177,16.177,0,0,1-1.738-4.287,18.152,18.152,0,0,1-.463-2.549.557.557,0,0,0-.191-.373.568.568,0,0,0-.388-.149h-.406c-12.63,0-26.419-8.4-33.6-20.51-4.751-8.053-5.967-16.57-3.36-23.406a18.179,18.179,0,0,1,11.993-10.776c13.615-4.113,31.923,4.635,40.787,19.467a36.914,36.914,0,0,1,3.65,8.459.685.685,0,0,0,.348.348.633.633,0,0,0,.463,0,41.144,41.144,0,0,1,6.257-2.433c9.849-2.955,20.046-2.317,27.346,1.8a18.462,18.462,0,0,1,9.154,11.414,15.879,15.879,0,0,1,.463,5.5.744.744,0,0,0,.232.521.519.519,0,0,0,.579.058l3.071-1.043c8.459-2.549,16.049-2.144,19.814,1.1a7.091,7.091,0,0,1,2.433,6.836c-.405,2.781-2.317,6.721-5.272,10.023h1.506c2.723-3.244,4.519-6.663,4.925-9.849A8.368,8.368,0,0,0,2273.894,561.669Z" transform="translate(-2146.478 -515.176)" fill="#808aff"/>
</svg>
