<svg xmlns="http://www.w3.org/2000/svg" width="290.328" height="37.331" viewBox="0 0 290.328 37.331">
  <g id="Group_53709" data-name="Group 53709" transform="translate(-166.471 1.15)">
    <g id="Group_53696" data-name="Group 53696" transform="translate(166.471 -1)">
      <text id="Download_for_Mac" data-name="Download for Mac" transform="translate(0 28.645)" fill="#fff" font-size="25" font-family="ABC Ginto Nord Variable Unlicensed Trial" letter-spacing="-0.02em"><tspan x="0" y="0">Download for Mac</tspan></text>
      <path id="ce6657bbd363907f5422d6c035bd0d90" d="M12.559,23.58a.926.926,0,0,0-.013,1.309l6.464,6.464a.925.925,0,0,0,1.309,0l6.464-6.464a.926.926,0,0,0-1.309-1.309L20.59,28.464V2.926a.926.926,0,1,0-1.852,0V28.464L13.854,23.58A.926.926,0,0,0,12.559,23.58Zm18.215-8.62H28a.926.926,0,1,0,0,1.852h2.777a3.708,3.708,0,0,1,3.7,3.7V33.477a3.708,3.708,0,0,1-3.7,3.7H8.555a3.708,3.708,0,0,1-3.7-3.7V20.516a3.708,3.708,0,0,1,3.7-3.7h4.629a.926.926,0,1,0,0-1.852H8.555A5.561,5.561,0,0,0,3,20.516V33.477a5.561,5.561,0,0,0,5.555,5.555H30.773a5.561,5.561,0,0,0,5.555-5.555V20.516A5.561,5.561,0,0,0,30.773,14.961Z" transform="translate(253.85 -2)" fill="#fff" stroke="#fff" stroke-width="0.3"/>
    </g>
  </g>
</svg>
