<svg xmlns="http://www.w3.org/2000/svg" width="108.222" height="39.841" viewBox="0 0 108.222 39.841">
  <path id="Path_666" data-name="Path 666" d="M1642.067,596.474h-1.159c.464-13.094-1.97-21.61-7.474-25.956s-14.716-4.635-27.636-.637a.637.637,0,0,1-.463-.058.678.678,0,0,1-.29-.406,13.625,13.625,0,0,0-8.343-10.544c-5.562-2.259-12.457-.985-18.366,3.36-14.368,10.487-12.8,29.258-12.8,29.432a.641.641,0,0,1-.093.34.624.624,0,0,1-.255.24.514.514,0,0,1-.336.053.522.522,0,0,1-.3-.169c-7.474-6.663-12.688-9.27-16.917-8.517s-8.053,5.272-12.4,12.862H1533.9c4.693-8.227,8.517-13.152,13.5-14.021s9.676,1.68,16.918,7.937c-.058-4.635.753-19.872,13.325-29.084,6.257-4.577,13.557-5.909,19.467-3.476a14.541,14.541,0,0,1,8.98,10.718c12.978-3.882,22.132-3.534,28.041,1.1S1642.531,582.975,1642.067,596.474Z" transform="translate(-1533.9 -556.633)" fill="#808aff"/>
</svg>
