<svg id="discord-svgrepo-com" xmlns="http://www.w3.org/2000/svg" width="168.14" height="32.532" viewBox="0 0 168.14 32.532">
  <path id="Path_247" data-name="Path 247" d="M26.93,0A34.229,34.229,0,0,1,35.6,2.725,36.327,36.327,0,0,1,41.847,27.08a34.6,34.6,0,0,1-10.64,5.452,26.329,26.329,0,0,1-2.277-3.751,22.338,22.338,0,0,0,3.593-1.749c-.3-.223-.592-.456-.879-.7a24.506,24.506,0,0,1-21.261,0c-.284.24-.578.473-.879.7a22.394,22.394,0,0,0,3.586,1.745,26.446,26.446,0,0,1-2.277,3.751A34.664,34.664,0,0,1,.178,27.08,36.363,36.363,0,0,1,6.409,2.731,34.115,34.115,0,0,1,15.086,0,24.647,24.647,0,0,1,16.21,2.306a31.835,31.835,0,0,1,9.609,0A25.422,25.422,0,0,1,26.93,0Zm83.391,10.406a10.372,10.372,0,0,1,5.761,1.489V16.22A7.155,7.155,0,0,0,114.2,15.3a7.312,7.312,0,0,0-2.3-.355,6.042,6.042,0,0,0-3.365.8,2.43,2.43,0,0,0-1.216,2.1,2.459,2.459,0,0,0,1.18,2.093,6,6,0,0,0,3.424.817,7.863,7.863,0,0,0,2.281-.341,8.4,8.4,0,0,0,1.93-.841v4.183a11.057,11.057,0,0,1-5.9,1.56,10.786,10.786,0,0,1-4.816-1,6.979,6.979,0,0,1-2.995-2.694,7.407,7.407,0,0,1-1-3.829,6.835,6.835,0,0,1,4.1-6.438A11.117,11.117,0,0,1,110.321,10.406Zm-17.378,0a14.023,14.023,0,0,1,3.564.425,9.779,9.779,0,0,1,2.684,1.087v3.71a9.865,9.865,0,0,0-2.512-1.053,11.025,11.025,0,0,0-2.929-.388q-2.177,0-2.175.756a.567.567,0,0,0,.337.53,5.488,5.488,0,0,0,1.236.368l2.314.425a6.732,6.732,0,0,1,3.378,1.4,3.794,3.794,0,0,1,1.111,2.968,3.943,3.943,0,0,1-1.838,3.417,9.14,9.14,0,0,1-5.219,1.266,15.185,15.185,0,0,1-3.864-.5,12.093,12.093,0,0,1-3.378-1.442V19.454A9.247,9.247,0,0,0,88.7,20.933a12.728,12.728,0,0,0,3.692.577,2.8,2.8,0,0,0,1.259-.223c.285-.149.427-.327.427-.533a.808.808,0,0,0-.232-.591,1.978,1.978,0,0,0-.9-.4l-2.777-.638a7.1,7.1,0,0,1-3.388-1.573,3.552,3.552,0,0,1-1.005-2.633,3.52,3.52,0,0,1,.88-2.387,5.585,5.585,0,0,1,2.5-1.57A11.68,11.68,0,0,1,92.943,10.4Zm75.2-2.576V24.842h-5.669v-3.1a5.48,5.48,0,0,1-2.185,2.66,6.78,6.78,0,0,1-3.623.908,5.9,5.9,0,0,1-3.355-.955,6.266,6.266,0,0,1-2.211-2.623,8.853,8.853,0,0,1-.777-3.771,8.512,8.512,0,0,1,.823-3.9,6.358,6.358,0,0,1,5.891-3.663,5.3,5.3,0,0,1,5.389,3.469l.048.122V7.827ZM126.587,10.4a10.949,10.949,0,0,1,4.744.945,6.772,6.772,0,0,1,4.072,6.4,7.312,7.312,0,0,1-1.041,3.852,7.152,7.152,0,0,1-3.045,2.718,11.793,11.793,0,0,1-9.463,0,7.108,7.108,0,0,1-4.109-6.57,6.938,6.938,0,0,1,1.054-3.795,7.1,7.1,0,0,1,3.045-2.613A10.947,10.947,0,0,1,126.587,10.4ZM83.12,14.275V24.916H77.468V14.275A7.119,7.119,0,0,0,83.12,14.275ZM147.2,10.71a3.808,3.808,0,0,1,2.106.567v5.1a4.027,4.027,0,0,0-2.291-.591,3.567,3.567,0,0,0-2.846,1.145,5.33,5.33,0,0,0-.995,3.558v4.348H137.5V11.017h5.554v4.4a7.366,7.366,0,0,1,1.494-3.558A3.4,3.4,0,0,1,147.2,10.71ZM65.5,8.3a13.176,13.176,0,0,1,5.521,1.04A7.447,7.447,0,0,1,74.4,12.232a8.045,8.045,0,0,1,1.123,4.244,7.67,7.67,0,0,1-4.733,7.252,14.094,14.094,0,0,1-5.937,1.111H56.474V8.3Zm-51.466,5.28a4.058,4.058,0,0,0-3.778,4.3,4.079,4.079,0,0,0,3.778,4.3,4.053,4.053,0,0,0,3.778-4.3A4.032,4.032,0,0,0,14.032,13.579Zm13.962,0a4.058,4.058,0,0,0-3.778,4.3,4.079,4.079,0,0,0,3.778,4.3,4.055,4.055,0,0,0,3.778-4.3A4.032,4.032,0,0,0,27.994,13.579Zm98.59,1.176a3.157,3.157,0,0,0-2.327.841,3.041,3.041,0,0,0-.843,2.255,2.943,2.943,0,0,0,3.17,3.143,3.087,3.087,0,0,0,2.3-.864,3.118,3.118,0,0,0,.846-2.279,3.024,3.024,0,0,0-.846-2.255A3.113,3.113,0,0,0,126.584,14.754Zm32.763.071a3.131,3.131,0,0,0-2.291.841,2.918,2.918,0,0,0-.856,2.184,2.959,2.959,0,0,0,.856,2.2,3.076,3.076,0,0,0,2.268.851,3.141,3.141,0,0,0,2.3-.864,3.009,3.009,0,0,0,.866-2.232,2.881,2.881,0,0,0-.843-2.151A3.154,3.154,0,0,0,159.347,14.825ZM65.085,12.506H62.262v8.13h2.5a4.723,4.723,0,0,0,3.378-1.121,4.026,4.026,0,0,0,1.18-3.062,3.924,3.924,0,0,0-1.051-2.87A4.269,4.269,0,0,0,65.085,12.506ZM80.3,7.3A2.717,2.717,0,0,1,83.123,9.9a2.837,2.837,0,0,1-5.653,0A2.717,2.717,0,0,1,80.3,7.3Z" fill="#fafbfa"/>
</svg>
