<svg xmlns="http://www.w3.org/2000/svg" width="9.851" height="19.583" viewBox="0 0 9.851 19.583">
  <path id="Path_667" data-name="Path 667" d="M589.811,269.212a7.3,7.3,0,0,1-3.36-5.214l-.579-3.708a.353.353,0,0,0-.7,0L584.6,264a7.479,7.479,0,0,1-3.36,5.214l-.464.29a.292.292,0,0,0-.134.117.32.32,0,0,0,.134.462l.464.29a7.71,7.71,0,0,1,3.36,5.272l.579,3.65a.353.353,0,0,0,.7,0l.579-3.65a7.532,7.532,0,0,1,3.36-5.272l.464-.29a.288.288,0,0,0,.133-.117.32.32,0,0,0-.133-.462Z" transform="translate(-580.598 -260)" fill="#91ffad"/>
</svg>
