<svg xmlns="http://www.w3.org/2000/svg" width="44.244" height="88.079" viewBox="0 0 44.244 88.079">
  <path id="Path_673" data-name="Path 673" d="M361.067,540.277a34.409,34.409,0,0,1-14.748-23.351l-2.458-16.387c-.409-.819-.819-1.638-1.638-1.638a1.637,1.637,0,0,0-1.639,1.638l-2.458,16.387a34.834,34.834,0,0,1-15.158,23.351l-2.458,1.229c-.41.409-.41.819-.41,1.638,0,.41,0,1.229.41,1.229l2.458,1.639a34,34,0,0,1,15.158,23.351l2.458,16.387c0,.819.819,1.229,1.639,1.229s1.229-.41,1.638-1.229l2.458-16.387a33.591,33.591,0,0,1,14.748-23.351l2.458-1.639c.41,0,.819-.819.819-1.229a2.023,2.023,0,0,0-.217-.913,2.062,2.062,0,0,0-.6-.725Z" transform="translate(-320.1 -498.9)" fill="#ff78b9"/>
</svg>
