<svg xmlns="http://www.w3.org/2000/svg" width="5.1" height="10.197" viewBox="0 0 5.1 10.197">
  <path id="Path_670" data-name="Path 670" d="M897.45,410.251a3.824,3.824,0,0,1-1.738-2.723l-.29-1.854a.174.174,0,0,0-.3-.123.172.172,0,0,0-.051.123l-.29,1.854a3.829,3.829,0,0,1-1.738,2.723l-.29.174c-.058,0-.058.116-.058.174a.229.229,0,0,0,.011.093.219.219,0,0,0,.047.081l.29.116a4.117,4.117,0,0,1,1.738,2.723l.29,1.912a.171.171,0,0,0,.051.123.174.174,0,0,0,.3-.123l.29-1.912a4.111,4.111,0,0,1,1.738-2.723l.29-.116a.237.237,0,0,0,.047-.081.24.24,0,0,0,.011-.093c0-.058,0-.174-.058-.174Z" transform="translate(-892.698 -405.5)" fill="#ff78b9"/>
</svg>
