<svg xmlns="http://www.w3.org/2000/svg" width="22.93" height="22.93" viewBox="0 0 22.93 22.93">
  <path id="Path_675" data-name="Path 675" d="M27.865,22.318a5.548,5.548,0,1,0,5.548,5.548A5.553,5.553,0,0,0,27.865,22.318Zm0,9.482A3.934,3.934,0,1,1,31.8,27.865,3.939,3.939,0,0,1,27.865,31.8Zm0-11.23a.818.818,0,0,0,.807-.807V17.207a.807.807,0,0,0-1.614,0v2.555A.818.818,0,0,0,27.865,20.569Zm0,14.592a.818.818,0,0,0-.807.807v2.555a.807.807,0,1,0,1.614,0V35.968A.818.818,0,0,0,27.865,35.161Zm5.716-12.2a.787.787,0,0,0,.572-.235l1.816-1.816a.808.808,0,1,0-1.143-1.143l-1.816,1.816a.833.833,0,0,0,0,1.143.954.954,0,0,0,.572.235Zm-12,10.053-1.816,1.816a.833.833,0,0,0,0,1.143.812.812,0,0,0,1.143,0l1.816-1.816a.808.808,0,0,0-1.143-1.143Zm16.946-5.951H35.968a.807.807,0,1,0,0,1.614h2.555a.807.807,0,1,0,0-1.614Zm-17.954.807a.818.818,0,0,0-.807-.807H17.207a.807.807,0,0,0,0,1.614h2.555A.818.818,0,0,0,20.569,27.865Zm13.583,5.144a.808.808,0,0,0-1.143,1.143l1.816,1.816a.812.812,0,0,0,1.143,0,.833.833,0,0,0,0-1.143ZM21.578,22.721a.812.812,0,0,0,1.143,0,.833.833,0,0,0,0-1.143l-1.816-1.816a.808.808,0,0,0-1.143,1.143Z" transform="translate(-16.4 -16.4)" fill="#fafbfa"/>
</svg>
